<?xml version="1.0" standalone="no"?><!DOCTYPE svg PUBLIC "-//W3C//DTD SVG 1.1//EN" "http://www.w3.org/Graphics/SVG/1.1/DTD/svg11.dtd"><svg t="1645537344568" class="icon" viewBox="0 0 1024 1024" version="1.1" xmlns="http://www.w3.org/2000/svg" p-id="4944" xmlns:xlink="http://www.w3.org/1999/xlink" width="200" height="200"><defs><style type="text/css"></style></defs><path d="M512 925.8c-228.3 0-414-185.7-414-414 0-223.3 174.6-405 397.4-413.5 8.6-0.7 16.1 4.1 20 11.5 3.9 7.3 3.4 16.3-1.5 23-27.6 38.3-42.1 83.7-42.1 131.3 0 124.6 101.3 225.9 225.9 225.9 69.7 0 134.5-31.4 177.7-86.2 5.1-6.5 13.5-9.5 21.7-7.8 8.1 1.7 14.5 7.9 16.6 16 8.1 32.2 12.2 65.8 12.2 99.9 0.1 228.2-185.6 413.9-413.9 413.9z m-56.4-780.1c-179.1 26.9-314 180.4-314 366.1 0 204.2 166.2 370.4 370.4 370.4S882.4 716 882.4 511.8c0-16.3-1-32.4-3.1-48.3-49.3 45-113.4 70.1-181.5 70.1-148.6 0-269.5-120.9-269.5-269.5 0-41.6 9.3-81.8 27.3-118.4z" fill="#FF9100" p-id="4945"></path></svg>