<?xml version="1.0" standalone="no"?><!DOCTYPE svg PUBLIC "-//W3C//DTD SVG 1.1//EN" "http://www.w3.org/Graphics/SVG/1.1/DTD/svg11.dtd"><svg t="1645537307261" class="icon" viewBox="0 0 1024 1024" version="1.1" xmlns="http://www.w3.org/2000/svg" p-id="3717" xmlns:xlink="http://www.w3.org/1999/xlink" width="200" height="200"><defs><style type="text/css"></style></defs><path d="M715.4 246.8c-14.4 0-28.9 1.7-43.3 4.4-45.7-66.5-119.5-106.1-200.8-106.1-96.9 0-185.1 58.4-223.5 146.4C142.5 310.7 64.5 402.9 64.5 511.3c0 105.9 75.3 198.1 179 219.3 14.6 3 29.7 4.5 44.7 4.5h61c11.2 0 20.3-9.1 20.3-20.3 0-11.2-9.1-20.3-20.3-20.3h-61c-12.3 0-24.7-1.2-36.6-3.7-84.9-17.3-146.4-92.8-146.4-179.4 0-92 68.6-169.9 159.9-181.4 7-1 14.3-1.4 21.6-1.5 19-0.2 38.3 2.6 56.4 8.3 10.7 3.3 22.1-2.6 25.5-13.3 3.4-10.7-2.6-22.1-13.3-25.5-19.4-6.1-40.1-9.2-60.4-9.8C330.7 226 398 186 471.3 186c62.9 0 120.6 28.2 159.1 76.5-46 17-86.1 47.5-114.7 88.1-6.5 9.2-4.3 21.9 4.9 28.3 9.2 6.5 21.9 4.3 28.3-4.9 28.6-40.6 70.7-69.2 118.7-80.6 15.8-3.8 31.8-5.7 47.7-5.7 112.2 0 203.4 91.2 203.4 203.4 0 90.7-60.8 171.1-148.1 195.7-17.4 5.1-36 7.7-55.3 7.7h-40.7c-11.2 0-20.3 9.1-20.3 20.3 0 11.2 9.1 20.3 20.3 20.3h40.7c23.2 0 45.7-3.2 66.5-9.3 104.5-29.4 177.6-126 177.6-234.8 0.1-134.7-109.4-244.2-244-244.2z" fill="#314056" p-id="3718"></path><path d="M715.4 653.7c-11.2 0-20.3-9.1-20.3-20.3s9.1-20.3 20.3-20.3c67.3 0 122-54.7 122-122 0-18.3-4-35.9-11.7-52.3-4.8-10.1-0.5-22.3 9.6-27.1 10.1-4.8 22.3-0.5 27.1 9.6 10.4 21.9 15.7 45.4 15.7 69.8 0 89.6-73 162.6-162.7 162.6zM512 878.9c-7.3 0-14.1-3.9-17.7-10.3l-81.4-143.8c-3.5-6.2-3.5-13.8 0-20L494.3 561c7.2-12.8 28.2-12.8 35.4 0l81.4 143.8c3.5 6.2 3.5 13.8 0 20l-81.4 143.8c-3.6 6.3-10.4 10.3-17.7 10.3z m-58-164.2l58 102.5 58-102.5-58-102.5-58 102.5z" fill="#A6C4F4" p-id="3719"></path></svg>