<?xml version="1.0" standalone="no"?><!DOCTYPE svg PUBLIC "-//W3C//DTD SVG 1.1//EN" "http://www.w3.org/Graphics/SVG/1.1/DTD/svg11.dtd"><svg t="1645537221475" class="icon" viewBox="0 0 1024 1024" version="1.1" xmlns="http://www.w3.org/2000/svg" p-id="1433" xmlns:xlink="http://www.w3.org/1999/xlink" width="200" height="200"><defs><style type="text/css"></style></defs><path d="M840 425.9c-0.7 0-1.4 0-2.1-0.1-11.1-1.1-19.2-11.1-18.1-22.2 1.5-14.6 1.2-29.4-0.9-44.1-6.8-48.2-31.9-90.9-70.8-120.2-38.9-29.3-86.8-41.7-135-34.9-89.8 12.6-157.2 90.4-156.9 180.9 0 11.2-9 20.3-20.2 20.3h-0.1c-11.2 0-20.2-9-20.2-20.2-0.4-110.6 82-205.7 191.7-221.1 59-8.3 117.5 6.9 165 42.7 47.5 35.8 78.3 88 86.5 146.9 2.5 17.9 2.9 36 1 53.8-0.9 10.5-9.7 18.2-19.9 18.2zM601.8 144.6c-9.9 0-18.6-7.3-20-17.4L576.1 87c-1.6-11.1 6.1-21.3 17.2-22.9 11-1.6 21.3 6.1 22.9 17.2l5.6 40.1c1.6 11.1-6.1 21.3-17.2 22.9-0.9 0.2-1.9 0.3-2.8 0.3zM428.2 246.8c-4.2 0-8.5-1.3-12.2-4.1l-32.3-24.4c-8.9-6.7-10.7-19.4-4-28.4 6.7-8.9 19.4-10.7 28.4-4l32.3 24.4c8.9 6.7 10.7 19.4 4 28.4-4 5.3-10 8.1-16.2 8.1zM899.1 368.5c-9.9 0-18.6-7.3-20-17.4-1.6-11.1 6.1-21.3 17.2-22.9l40.1-5.6c11.2-1.6 21.3 6.2 22.9 17.2 1.6 11.1-6.1 21.3-17.2 22.9l-40.1 5.6c-1 0.2-1.9 0.2-2.9 0.2zM796.9 195c-4.2 0-8.5-1.3-12.2-4.1-8.9-6.7-10.7-19.4-4-28.4l24.4-32.3c6.7-8.9 19.4-10.7 28.4-4 8.9 6.7 10.7 19.4 4 28.4L813 186.9c-3.9 5.3-10 8.1-16.1 8.1z" fill="#FF9100" p-id="1434"></path><path d="M732.7 810.7H307.5c-23.1 0-45.4-3.1-66.5-9.3C137.2 772.1 64.5 676 64.5 567.7c0-134 109-243 243-243 19 0 38.2 2.3 57 6.8 57.3 13.6 107.7 47.9 141.8 96.3 6.4 9.1 4.3 21.8-4.9 28.2-9.1 6.5-21.8 4.3-28.2-4.9-28.5-40.4-70.4-68.9-118.1-80.3-15.8-3.8-31.8-5.7-47.6-5.7C195.8 365.2 105 456 105 567.7c0 90.3 60.5 170.3 147.2 194.7 17.5 5.2 36 7.7 55.3 7.7h425.2c12.3 0 24.6-1.2 36.5-3.6C853.7 749.3 915 674.2 915 587.9c0-91.5-68.3-169.2-158.8-180.6-26.6-3.8-53.1-1.2-78.1 6.7-10.6 3.4-22-2.6-25.4-13.2-3.4-10.7 2.6-22 13.2-25.4 30.7-9.7 64.1-12.7 95.6-8.2C871.9 381.1 955.4 476 955.4 587.9c0 105.4-74.9 197.2-178.2 218.3-14.5 3-29.5 4.5-44.5 4.5z" fill="#314056" p-id="1435"></path><path d="M307.5 729.7c-89.3 0-162-72.7-162-162 0-24.3 5.2-47.7 15.6-69.4 4.8-10.1 16.9-14.4 27-9.6 10.1 4.8 14.4 16.9 9.6 27-7.8 16.3-11.7 33.8-11.7 52.1 0 67 54.5 121.5 121.5 121.5 11.2 0 20.2 9.1 20.2 20.2s-9 20.2-20.2 20.2z" fill="#A6C4F4" p-id="1436"></path></svg>