<?xml version="1.0" standalone="no"?><!DOCTYPE svg PUBLIC "-//W3C//DTD SVG 1.1//EN" "http://www.w3.org/Graphics/SVG/1.1/DTD/svg11.dtd"><svg t="1645537264616" class="icon" viewBox="0 0 1024 1024" version="1.1" xmlns="http://www.w3.org/2000/svg" p-id="2196" xmlns:xlink="http://www.w3.org/1999/xlink" width="200" height="200"><defs><style type="text/css"></style></defs><path d="M715.4 227.2c-14.4 0-28.9 1.7-43.3 4.4-45.7-66.5-119.5-106.1-200.8-106.1-96.9 0-185.1 58.4-223.5 146.4C142.5 291 64.5 383.3 64.5 491.7c0 105.9 75.3 198.1 179 219.3 7.3 1.5 14.8 2.6 22.4 3.4 0.7 0.1 1.4 0.1 2 0.1 10.3 0 19.2-7.8 20.2-18.3 1.1-11.2-7.1-21.1-18.2-22.2-6.2-0.6-12.3-1.5-18.3-2.8-84.9-17.3-146.4-92.7-146.4-179.4 0-92 68.6-169.9 159.9-181.4 7-1 14.3-1.4 21.6-1.5 19-0.2 38.3 2.6 56.5 8.3 10.7 3.4 22.1-2.6 25.5-13.3 3.4-10.7-2.6-22.1-13.3-25.5-19.4-6.1-40.1-9.2-60.4-9.8 35.8-62.2 103.1-102.2 176.4-102.2 62.9 0 120.7 28.2 159.1 76.5-46 17-86.1 47.5-114.7 88.1-6.5 9.2-4.3 21.9 4.9 28.3 9.2 6.5 21.9 4.3 28.3-4.9 28.6-40.6 70.7-69.2 118.7-80.6 15.8-3.8 31.8-5.7 47.7-5.7 112.2 0 203.4 91.2 203.4 203.4 0 90.7-60.8 171.1-148.1 195.7-6 1.8-12.1 3.2-18.3 4.4-11 2.1-18.3 12.7-16.3 23.7 1.8 9.8 10.4 16.6 20 16.6 1.2 0 2.5-0.1 3.8-0.3 7.6-1.4 15-3.2 22.1-5.3 104.5-29.4 177.6-126 177.6-234.8-0.1-134.8-109.6-244.3-244.2-244.3z" fill="#314056" p-id="2197"></path><path d="M715.4 634c-11.2 0-20.3-9.1-20.3-20.3 0-11.2 9.1-20.3 20.3-20.3 67.3 0 122-54.7 122-122 0-18.3-4-35.9-11.7-52.3-4.8-10.1-0.5-22.3 9.6-27.1 10.1-4.8 22.3-0.5 27.1 9.6 10.4 21.9 15.7 45.3 15.7 69.8 0 89.6-73 162.6-162.7 162.6zM451 817.1c-11.2 0-20.3-9.1-20.3-20.3V695.1c0-11.2 9.1-20.3 20.3-20.3s20.3 9.1 20.3 20.3v101.7c0 11.2-9.1 20.3-20.3 20.3zM573 898.5c-11.2 0-20.3-9.1-20.3-20.3v-20.3c0-11.2 9.1-20.3 20.3-20.3 11.2 0 20.3 9.1 20.3 20.3v20.3c0.1 11.2-9 20.3-20.3 20.3zM573 796.8c-11.2 0-20.3-9.1-20.3-20.3v-81.4c0-11.2 9.1-20.3 20.3-20.3 11.2 0 20.3 9.1 20.3 20.3v81.4c0.1 11.2-9 20.3-20.3 20.3z" fill="#A6C4F4" p-id="2198"></path><path d="M349.3 898.5c-11.2 0-20.3-9.1-20.3-20.3v-61c0-11.2 9.1-20.3 20.3-20.3s20.3 9.1 20.3 20.3v61c0 11.2-9.1 20.3-20.3 20.3z" fill="#A6C4F4" p-id="2199"></path><path d="M349.3 776.4c-11.2 0-20.3-9.1-20.3-20.3v-61c0-11.2 9.1-20.3 20.3-20.3s20.3 9.1 20.3 20.3v61c0 11.2-9.1 20.3-20.3 20.3z" fill="#A6C4F4" p-id="2200"></path><path d="M674.7 898.5c-11.2 0-20.3-9.1-20.3-20.3V695.1c0-11.2 9.1-20.3 20.3-20.3 11.2 0 20.3 9.1 20.3 20.3v183.1c0.1 11.2-9 20.3-20.3 20.3z" fill="#A6C4F4" p-id="2201"></path></svg>