<?xml version="1.0" standalone="no"?><!DOCTYPE svg PUBLIC "-//W3C//DTD SVG 1.1//EN" "http://www.w3.org/Graphics/SVG/1.1/DTD/svg11.dtd"><svg t="1645537349773" class="icon" viewBox="0 0 1024 1024" version="1.1" xmlns="http://www.w3.org/2000/svg" p-id="5094" xmlns:xlink="http://www.w3.org/1999/xlink" width="200" height="200"><defs><style type="text/css"></style></defs><path d="M828.1 461.4c-2 0-4.1-0.3-6.1-0.9-10.7-3.4-16.7-14.8-13.3-25.5 5.6-17.7 8.4-36.2 8.4-54.9 0-2.4 0-4.9-0.1-7.3-24.9 17.9-55 27.7-86.6 27.7-82.1 0-148.8-66.8-148.8-148.8 0-17 2.8-33.6 8.3-49.3C509.6 221.9 451 294 451 380c0 18.7 2.8 37.2 8.4 54.9 3.4 10.7-2.6 22.1-13.3 25.5-10.7 3.3-22.1-2.6-25.5-13.3-6.8-21.7-10.2-44.2-10.2-67.1 0-120.7 94.4-218.9 214.8-223.5 8-0.3 15 3.9 18.7 10.7 3.7 6.8 3.1 15.2-1.4 21.5-13.2 18.3-20.2 40.1-20.2 62.9 0 59.6 48.5 108.1 108.1 108.1 33.4 0 64.4-15 85.1-41.3 4.8-6.1 12.6-8.9 20.2-7.3 7.6 1.6 13.6 7.4 15.5 14.9 4.4 17.4 6.6 35.6 6.6 54 0 22.9-3.5 45.5-10.3 67.1-2.7 8.8-10.7 14.3-19.4 14.3z" fill="#FF9100" p-id="5095"></path><path d="M735.8 867.5H308.6c-23.2 0-45.7-3.2-66.8-9.4C137.5 828.8 64.5 732.2 64.5 623.4c0-134.6 109.5-244.1 244.1-244.1 19 0 38.3 2.3 57.2 6.9 57.6 13.7 108.2 48.1 142.5 96.8 6.5 9.2 4.3 21.9-4.9 28.3-9.2 6.5-21.9 4.2-28.3-4.9-28.6-40.6-70.7-69.2-118.7-80.6-15.9-3.8-31.9-5.8-47.8-5.8-112.2 0-203.4 91.2-203.4 203.4 0 90.7 60.8 171.1 147.9 195.6 17.6 5.2 36.2 7.8 55.5 7.8h427.2c12.4 0 24.7-1.2 36.6-3.7 84.8-17.3 146.4-92.8 146.4-179.4 0-92-68.6-169.9-159.6-181.4-27-3.9-53.3-1.2-78.4 6.7-10.7 3.3-22.1-2.6-25.5-13.3-3.4-10.7 2.6-22.1 13.3-25.5 30.9-9.7 64.2-12.8 96-8.2 110.9 14 194.8 109.3 194.8 221.7 0 105.9-75.3 198.1-179 219.3-14.5 3-29.6 4.5-44.6 4.5z" fill="#314056" p-id="5096"></path><path d="M308.6 786.1c-89.7 0-162.7-73-162.7-162.7 0-24.4 5.3-47.9 15.7-69.8 4.8-10.2 17-14.5 27.1-9.6 10.2 4.8 14.5 17 9.6 27.1-7.8 16.4-11.7 34-11.7 52.3 0 67.3 54.7 122 122 122 11.2 0 20.3 9.1 20.3 20.3 0 11.3-9.1 20.4-20.3 20.4z" fill="#A6C4F4" p-id="5097"></path></svg>