<?xml version="1.0" standalone="no"?><!DOCTYPE svg PUBLIC "-//W3C//DTD SVG 1.1//EN" "http://www.w3.org/Graphics/SVG/1.1/DTD/svg11.dtd"><svg t="1645537170897" class="icon" viewBox="0 0 1024 1024" version="1.1" xmlns="http://www.w3.org/2000/svg" p-id="1283" xmlns:xlink="http://www.w3.org/1999/xlink" width="200" height="200"><defs><style type="text/css"></style></defs><path d="M512 756.1c-134.6 0-244.1-109.5-244.1-244.1S377.4 267.9 512 267.9 756.1 377.4 756.1 512 646.6 756.1 512 756.1z m0-447.5c-112.2 0-203.4 91.2-203.4 203.4S399.8 715.4 512 715.4 715.4 624.2 715.4 512 624.2 308.6 512 308.6zM512 227.2c-11.2 0-20.3-9.1-20.3-20.3v-122c0-11.2 9.1-20.3 20.3-20.3 11.2 0 20.3 9.1 20.3 20.3v122c0 11.2-9.1 20.3-20.3 20.3zM288.2 308.6c-5.2 0-10.4-2-14.4-6l-61-61c-7.9-7.9-7.9-20.8 0-28.8s20.8-7.9 28.8 0l61 61c7.9 7.9 7.9 20.8 0 28.8-3.9 4-9.1 6-14.4 6zM206.9 532.3h-122c-11.2 0-20.3-9.1-20.3-20.3 0-11.2 9.1-20.3 20.3-20.3h122c11.2 0 20.3 9.1 20.3 20.3 0 11.2-9.1 20.3-20.3 20.3zM227.2 817.1c-5.2 0-10.4-2-14.4-6-7.9-7.9-7.9-20.8 0-28.8l61-61c7.9-7.9 20.8-7.9 28.8 0 7.9 7.9 7.9 20.8 0 28.8l-61 61c-4 4-9.2 6-14.4 6zM512 959.5c-11.2 0-20.3-9.1-20.3-20.3v-122c0-11.2 9.1-20.3 20.3-20.3 11.2 0 20.3 9.1 20.3 20.3v122c0 11.2-9.1 20.3-20.3 20.3zM796.8 817.1c-5.2 0-10.4-2-14.4-6l-61-61c-7.9-7.9-7.9-20.8 0-28.8s20.8-7.9 28.8 0l61 61c7.9 7.9 7.9 20.8 0 28.8-4 4-9.2 6-14.4 6zM939.2 532.3h-122c-11.2 0-20.3-9.1-20.3-20.3 0-11.2 9.1-20.3 20.3-20.3h122c11.2 0 20.3 9.1 20.3 20.3 0 11.2-9.1 20.3-20.3 20.3zM735.8 308.6c-5.2 0-10.4-2-14.4-6-7.9-7.9-7.9-20.8 0-28.8l61-61c7.9-7.9 20.8-7.9 28.8 0 7.9 7.9 7.9 20.8 0 28.8l-61 61c-4 4-9.2 6-14.4 6z" fill="#FF9100" p-id="1284"></path></svg>